# xmcd CD database file
#
# Track frame offsets:
#	150
#	46575
#	86700
#	155738
#	196257
#
# Disc length: 3371 seconds
#
# Revision: 0
# Processed by: cddbd v1.4PL0 Copyright (c) Steve Scherf et al.
# Submitted via: CDex 1.50Beta7
#
DISCID=360d2905
DTITLE=Hugo Siegmeth - Live at the Jazzclub Unterfahrt
DYEAR=2001
DGENRE=Jazz
TTITLE0=One Day with you
TTITLE1=Kaul
TTITLE2=Siga, Siga
TTITLE3=Oscar
TTITLE4=Zigeuner
EXTD=YEAR: 2001
EXTT0=
EXTT1=
EXTT2=
EXTT3=
EXTT4=
PLAYORDER=
